<?xml version="1.0" encoding="UTF-8" standalone="no"?>
<!-- Created with Inkscape (http://www.inkscape.org/) -->

<svg
   width="33.903114mm"
   height="74.961754mm"
   viewBox="0 0 33.903143 74.961819"
   version="1.1"
   id="svg864"
   xml:space="preserve"
   inkscape:version="1.2.2 (b0a8486541, 2022-12-01)"
   sodipodi:docname="featured.svg"
   inkscape:export-filename="featured.jpg"
   inkscape:export-xdpi="154.52608"
   inkscape:export-ydpi="154.52608"
   xmlns:inkscape="http://www.inkscape.org/namespaces/inkscape"
   xmlns:sodipodi="http://sodipodi.sourceforge.net/DTD/sodipodi-0.dtd"
   xmlns="http://www.w3.org/2000/svg"
   xmlns:svg="http://www.w3.org/2000/svg"><sodipodi:namedview
     id="namedview866"
     pagecolor="#ffffff"
     bordercolor="#000000"
     borderopacity="0.25"
     inkscape:showpageshadow="2"
     inkscape:pageopacity="0.0"
     inkscape:pagecheckerboard="0"
     inkscape:deskcolor="#d1d1d1"
     inkscape:document-units="mm"
     showgrid="false"
     showguides="true"
     inkscape:zoom="0.75009824"
     inkscape:cx="266.63174"
     inkscape:cy="-81.989261"
     inkscape:window-width="2560"
     inkscape:window-height="1403"
     inkscape:window-x="1920"
     inkscape:window-y="0"
     inkscape:window-maximized="1"
     inkscape:current-layer="layer1" /><defs
     id="defs861"><style
       id="style2095">

      .cls-3 {
        fill: url(#linear-gradient-1);
      }

      .cls-4 {
        fill: #fc9502;
      }

      .cls-5 {
        fill: #fce202;
      }
    </style><linearGradient
       id="linear-gradient-1"
       gradientUnits="userSpaceOnUse"
       x1="94.140999"
       y1="255"
       x2="94.140999"
       y2="0.18799999"><stop
         offset="0"
         stop-color="#ff4c0d"
         id="stop2097" /><stop
         offset="1"
         stop-color="#fc9502"
         id="stop2099" /></linearGradient></defs><g
     inkscape:label="Layer 1"
     inkscape:groupmode="layer"
     id="layer1"
     transform="translate(-58.501045,-186.33489)"><g
       transform="matrix(0.01454095,0.01774618,-0.01774618,0.01454095,77.187192,220.35792)"
       id="g1011">
	<g
   id="g841">
		<path
   inkscape:connector-curvature="0"
   id="path833"
   d="m 146.014,554.568 c 1.591,3.545 5.165,6.132 9.438,6.83 l 42.059,6.831 c 1.581,2.84 3.243,5.638 4.911,8.414 l -18.34,33.827 c -1.888,3.447 -1.577,7.5 0.781,10.702 2.349,3.221 6.4,5.152 10.76,5.091 l 42.82,-0.495 c 2.171,2.474 4.378,4.926 6.632,7.333 l -10.506,36.433 c -1.063,3.699 0.122,7.617 3.146,10.377 3.008,2.749 7.431,3.947 11.671,3.155 l 41.844,-7.838 c 2.662,2.061 5.372,4.098 8.109,6.094 l -2.189,37.566 c -0.23,3.802 1.81,7.46 5.388,9.639 3.576,2.194 8.159,2.604 12.14,1.1 l 39.174,-14.833 c 3.104,1.573 6.225,3.132 9.381,4.642 l 6.194,37.179 c 0.626,3.767 3.436,7.009 7.425,8.542 3.976,1.538 8.571,1.153 12.125,-1.009 l 35.074,-21.251 c 3.396,1.021 6.807,2.001 10.265,2.942 l 14.3,35.416 c 1.455,3.609 4.91,6.306 9.169,7.127 4.244,0.814 8.649,-0.345 11.652,-3.066 l 29.687,-26.946 c 3.522,0.409 7.048,0.789 10.584,1.114 l 21.947,32.409 c 2.226,3.281 6.218,5.33 10.565,5.413 4.334,0.083 8.41,-1.812 10.733,-5.008 l 23.126,-31.552 c 3.547,-0.188 7.099,-0.435 10.628,-0.709 l 28.682,28.058 c 2.905,2.835 7.279,4.161 11.538,3.509 4.282,-0.666 7.842,-3.222 9.418,-6.773 l 15.601,-34.846 c 3.479,-0.81 6.926,-1.668 10.365,-2.55 l 34.257,22.572 c 3.483,2.302 8.062,2.861 12.1,1.468 4.025,-1.379 6.964,-4.513 7.725,-8.252 l 7.556,-36.917 c 3.208,-1.389 6.385,-2.818 9.552,-4.281 l 38.6,16.313 c 3.92,1.661 8.535,1.422 12.17,-0.636 3.65,-2.042 5.828,-5.619 5.732,-9.426 l -0.802,-37.625 c 2.803,-1.892 5.578,-3.823 8.327,-5.78 l 41.521,9.426 c 4.218,0.946 8.677,-0.075 11.79,-2.709 3.135,-2.644 4.454,-6.513 3.53,-10.249 l -9.146,-36.808 c 2.32,-2.329 4.618,-4.687 6.875,-7.074 l 42.77,2.125 c 4.316,0.19 8.473,-1.549 10.943,-4.679 2.478,-3.11 2.918,-7.147 1.181,-10.665 l -17.104,-34.501 c 1.774,-2.712 3.535,-5.445 5.231,-8.222 l 42.278,-5.226 c 4.297,-0.526 7.954,-2.975 9.684,-6.465 1.72,-3.5 1.257,-7.533 -1.215,-10.677 L 921.479,528.24 c 0.203,-0.531 -1.999,-32.28 -21.526,-58.158 0,0 -0.169,-0.069 -0.475,-0.191 C 855.033,407.22 716.712,359.6 552.124,356.465 378.036,353.149 231.49,400.686 193.714,467.318 176.853,484.381 172.602,512.466 173.11,513.99 l -25.495,29.958 c -2.602,3.046 -3.19,7.059 -1.601,10.62 z"
   fill="#8f1f1d" />
		<path
   inkscape:connector-curvature="0"
   id="path835"
   d="m 1006.008,420.45 c -1.728,-4.947 -19.723,-3.687 -24.194,-4.556 l -65.68,0.586 c -1.701,-3.954 -3.489,-7.85 -5.283,-11.713 l 42.551,-65.735 c 1.905,-4.904 12.443,-11.779 9.923,-16.227 -2.512,-4.469 -18.607,1.506 -23.153,1.708 l -67.827,12.061 c -2.313,-3.422 -4.662,-6.814 -7.059,-10.144 l 38.03,-84.758 c 1.039,-5.237 12.658,-26.514 9.45,-30.318 -3.189,-3.792 -18.273,9.018 -22.681,10.249 l -73.744,46.76 c -2.816,-2.829 -5.681,-5.624 -8.575,-8.362 l 20.894,-73.414 c 0.168,-5.358 11.334,-30.76 7.561,-33.733 -3.771,-2.993 -16.667,8.452 -20.79,10.675 l -65.16,50.814 c -3.268,-2.13 -6.552,-4.242 -9.872,-6.284 l 15.496,-86.805 c -0.726,-5.287 5.608,-32.964 1.417,-35.016 -4.174,-2.061 -26.104,22.056 -29.768,25.194 l -51.029,65.23 c -3.562,-1.346 -7.138,-2.635 -10.763,-3.867 L 660.92,74.281 c -1.585,-5.042 -1.212,-22.872 -5.67,-23.913 -4.442,-1.033 -10.15,14.875 -13.23,18.788 l -44.103,87.736 c -3.682,-0.482 -7.366,-0.922 -11.061,-1.283 L 564.527,54.643 C 562.143,50.081 559.614,35 555.078,35 c -4.522,0 -8.035,18.07 -10.396,22.631 l -27.077,97.982 c -3.695,0.361 -7.396,0.801 -11.07,1.283 L 468.137,67.88 c -3.084,-3.914 -8.33,-23.237 -12.758,-22.205 -4.455,1.053 -3.621,15.455 -5.197,20.497 l -11.499,106.627 c -3.614,1.232 -7.193,2.532 -10.764,3.867 l -34.912,-44.734 c -3.677,-3.148 -24.165,-34.096 -28.351,-32.026 -4.172,2.051 -1.167,34.426 -1.89,39.712 l 1.271,68.443 c -3.32,2.042 -6.606,4.14 -9.883,6.284 l -63.681,-59.354 c -4.12,-2.232 -12.786,-11.533 -16.538,-8.541 -3.769,2.974 -0.643,16.419 -0.472,21.778 l 23.196,91.775 c -2.887,2.738 -5.745,5.533 -8.575,8.362 l -69.905,-43.344 c -4.418,-1.22 -18.065,-11.905 -21.263,-8.113 -3.218,3.804 4.164,7.809 5.197,13.047 l 36.995,96.478 c -2.376,3.342 -4.729,6.721 -7.034,10.144 L 118.07,298.04 c -4.506,-0.151 -16.917,-6.178 -19.435,-1.708 -2.522,4.447 8.045,10.896 9.923,15.8 l 85.012,92.637 c -1.798,3.863 -3.583,7.759 -5.3,11.713 l -82.547,-9.979 c -4.47,0.857 -16.217,-1.544 -17.956,3.415 -1.728,4.972 9.648,11.415 12.286,15.774 l 61.741,66.493 c -0.201,0.755 2.702,45.391 23.563,81.296 0,0 0.177,0.092 0.499,0.258 47.554,87.035 192.733,150.364 364.46,150.364 181.639,0 333.578,-70.85 371.705,-165.663 17.261,-24.474 21.158,-64.123 20.598,-66.255 l 50.158,-54.084 c 2.656,-4.362 14.956,-12.68 13.231,-17.651 z"
   fill="#8f1f1d" />
		<path
   inkscape:connector-curvature="0"
   id="path837"
   d="m 195.34,493.008 c 0,0 -94.761,13.599 -116.083,18.311 -21.321,4.711 -7.095,8.297 0,9.421 24.757,3.927 146.88,7.067 149.25,7.853 2.369,0.785 -33.167,-35.585 -33.167,-35.585 z"
   fill="#8f1f1d" />
		<path
   inkscape:connector-curvature="0"
   id="path839"
   d="m 896.038,499.622 c 0,0 94.762,13.6 116.083,18.311 21.32,4.712 7.095,8.298 0,9.422 -24.758,3.927 -146.88,7.067 -149.249,7.853 -2.37,0.784 33.166,-35.586 33.166,-35.586 z"
   fill="#8f1f1d" />
	</g>
	<g
   transform="translate(-48,14)"
   id="g847">
		<path
   inkscape:connector-curvature="0"
   id="path843"
   d="m 467.982,486.018 c 0,0 -41.096,-44.997 -82.191,0 0,0 -32.292,60.001 0,89.998 0,0 52.837,41.999 82.191,0 0,0 35.226,-33.002 0,-89.998 z" />
		<path
   inkscape:connector-curvature="0"
   id="path845"
   d="m 420.404,502.71 c 0,17.521 10.329,31.727 23.066,31.727 12.735,0 23.064,-14.205 23.064,-31.727 0,-17.522 -10.329,-31.728 -23.064,-31.728 -12.738,0 -23.066,14.206 -23.066,31.728 z"
   fill="#ffffff" />
	</g>
	<g
   transform="translate(-48,14)"
   id="g853">
		<path
   inkscape:connector-curvature="0"
   id="path849"
   d="m 698.226,469.498 c 0,0 -70.494,-31.212 -89.735,38.454 0,0 -20.153,81.201 57.891,85.784 -10e-4,0 99.518,-19.168 31.844,-124.238 z" />
		<path
   inkscape:connector-curvature="0"
   id="path851"
   d="m 662.819,499.628 c 0,18.068 10.65,32.723 23.79,32.723 13.133,0 23.786,-14.654 23.786,-32.723 0,-18.072 -10.653,-32.723 -23.786,-32.723 -13.139,0 -23.79,14.651 -23.79,32.723 z"
   fill="#ffffff" />
	</g>
	
	
	
	
	
	
	
	
	
	
	
</g><g
       id="g1700"
       transform="matrix(0.08284221,0,0,0.08284221,54.244975,218.88127)"><polygon
         style="fill:#cee8fa"
         points="382.855,370.221 191.901,370.221 154.983,471.605 182.39,471.605 182.39,497.951 392.368,497.951 392.368,471.605 419.775,471.605 "
         id="polygon1680" /><g
         id="g1688">
	<path
   style="fill:#2d527c"
   d="m 396.057,365.415 c -2.02,-5.548 -7.296,-9.241 -13.2,-9.241 H 203.321 L 160.597,151.48 c -1.585,-7.596 -9.031,-12.461 -16.623,-10.882 -7.596,1.586 -12.468,9.028 -10.882,16.623 l 44.239,211.955 -35.549,97.622 c -1.568,4.307 -0.937,9.109 1.693,12.865 2.629,3.755 6.925,5.992 11.509,5.992 h 13.358 v 12.298 c 0,7.758 6.29,14.049 14.049,14.049 h 209.978 c 7.759,0 14.049,-6.291 14.049,-14.049 v -12.298 h 13.358 c 4.584,0 8.88,-2.237 11.509,-5.992 2.63,-3.755 3.261,-8.557 1.693,-12.865 z m -3.689,92.141 c -7.759,0 -14.049,6.291 -14.049,14.049 v 12.298 h -181.88 v -12.298 c 0,-7.758 -6.29,-14.049 -14.049,-14.049 h -7.341 l 26.687,-73.285 H 373.02 l 26.687,73.285 z"
   id="path1682" />
	<path
   style="fill:#2d527c"
   d="m 457.478,56.069 c -2.668,-3.282 -6.672,-5.187 -10.902,-5.187 H 65.425 c -4.285,0 -8.337,1.957 -11.002,5.312 -2.665,3.355 -3.653,7.745 -2.682,11.918 l 36.527,157.086 c 1.756,7.558 9.305,12.252 16.866,10.503 7.557,-1.758 12.259,-9.309 10.502,-16.866 L 83.115,78.98 H 429.292 L 379.93,315.476 c -1.585,7.595 3.286,15.037 10.882,16.623 0.968,0.202 1.933,0.299 2.884,0.299 6.512,0 12.355,-4.555 13.738,-11.182 L 460.327,67.801 c 0.867,-4.141 -0.181,-8.45 -2.849,-11.732 z"
   id="path1684" />
	<path
   style="fill:#2d527c"
   d="M 403.746,28.098 H 171.011 c -7.759,0 -14.049,-6.291 -14.049,-14.049 C 156.962,6.291 163.252,0 171.011,0 h 232.736 c 7.759,0 14.049,6.291 14.049,14.049 0,7.758 -6.291,14.049 -14.05,14.049 z"
   id="path1686" />
</g></g><g
       id="fire"
       transform="matrix(0.11597864,0,0,0.11597864,66.887761,186.33542)"><path
         d="m 187.899,164.809 c -2.096,50.059 -43.325,90.003 -93.899,90.003 -51.915,0 -94,-43.5 -94,-94 0,-6.75 -0.121,-20.24 10,-43 6.057,-13.621 9.856,-22.178 12,-30 1.178,-4.299 3.469,-11.129 10,0 3.851,6.562 4,16 4,16 0,0 14.328,-10.995 24,-32 14.179,-30.793 2.866,-49.2 -1,-62 -1.338,-4.428 -2.178,-12.386 7,-9 9.352,3.451 34.076,20.758 47,39 18.445,26.035 25,51 25,51 0,0 5.906,-7.33 8,-15 2.365,-8.661 2.4,-17.239 9.999,-7.999 7.227,8.787 17.96,25.3 24.001,40.999 10.969,28.509 7.899,55.997 7.899,55.997 z"
         id="path-1"
         class="cls-3"
         fill-rule="evenodd"
         style="fill:url(#linear-gradient-1)" /><path
         d="m 94,254.812 c -35.899,0 -65,-29.101 -65,-65 0,-21.661 8.729,-34.812 26.896,-52.646 11.632,-11.419 22.519,-25.444 27.146,-34.994 0.911,-1.88 2.984,-11.677 10.977,-0.206 4.193,6.016 10.766,16.715 14.981,25.846 7.266,15.743 9,31 9,31 0,0 7.121,-4.196 12,-15 1.573,-3.482 4.753,-16.664 13.643,-3.484 6.523,9.672 15.484,27.062 15.357,49.484 0,35.899 -29.102,65 -65,65 z"
         id="path-2"
         class="cls-4"
         fill-rule="evenodd" /><path
         d="m 95,183.812 c 9.25,0 9.25,17.129 21,40 7.824,15.229 -3.879,31 -21,31 -17.121,0 -26,-13.879 -26,-31 0,-17.12 16.75,-40 26,-40 z"
         id="path-3"
         class="cls-5"
         fill-rule="evenodd" /></g></g></svg>
